<?xml version="1.0" encoding="UTF-8" standalone="no"?>
<svg
   height="960"
   viewBox="0 0 960 960"
   width="960"
   version="1.1"
   id="svg1"
   sodipodi:docname="icon.svg"
   inkscape:version="1.3.2 (091e20e, 2023-11-25, custom)"
   xmlns:inkscape="http://www.inkscape.org/namespaces/inkscape"
   xmlns:sodipodi="http://sodipodi.sourceforge.net/DTD/sodipodi-0.dtd"
   xmlns="http://www.w3.org/2000/svg"
   xmlns:svg="http://www.w3.org/2000/svg">
  <defs
     id="defs1" />
  <sodipodi:namedview
     id="namedview1"
     pagecolor="#ffffff"
     bordercolor="#000000"
     borderopacity="0.25"
     inkscape:showpageshadow="2"
     inkscape:pageopacity="0.0"
     inkscape:pagecheckerboard="0"
     inkscape:deskcolor="#d1d1d1"
     inkscape:zoom="1.971875"
     inkscape:cx="480"
     inkscape:cy="480"
     inkscape:window-width="3840"
     inkscape:window-height="2089"
     inkscape:window-x="-8"
     inkscape:window-y="-8"
     inkscape:window-maximized="1"
     inkscape:current-layer="svg1" />
  <path
     d="m 252.55151,82 c 135.18432,0 246.5515,86.93557 246.5515,197.1072 v 73.96084 c -0.15756,42.1671 -29.02295,79.65795 -77.07525,106.11426 -45.27057,24.92477 -105.51569,38.96192 -169.47625,38.96192 -64.04238,0 -124.35877,-14.07324 -169.646524,-39.05573 C 34.819795,432.56283 6,394.97545 6,352.7287 V 279.1072 C 6,170.14195 115.03873,83.715142 248.55608,82.025269 c 0.0437,-5.54e-4 0.0875,-9.69e-4 0.13123,-0.0012 L 252.42043,82 Z m 0,20.88553 -3.73312,0.0236 C 125.86444,104.46532 26.806034,182.75591 26.806034,279.1072 v 73.88257 l 0.03024,1.79826 c 1.993511,67.82619 102.286206,122.47065 225.715236,122.47065 124.51772,0 225.48917,-55.61269 225.74547,-124.26891 V 279.1072 c 0,-97.32454 -101.06969,-176.22167 -225.74547,-176.22167 z m 0.50843,7.54714 c 79.71649,0 145.02134,33.99322 145.02134,78.00198 0,44.00876 -65.30485,78.00197 -145.02134,78.00197 -79.71648,0 -145.02134,-33.99321 -145.02134,-78.00197 0,-44.00876 65.30486,-78.00198 145.02134,-78.00198 z m 0,10.44277 c -74.72423,0 -134.61832,31.17674 -134.61832,67.55921 0,36.38246 59.89409,67.55921 134.61832,67.55921 74.72424,0 134.61832,-31.17675 134.61832,-67.55921 0,-36.38247 -59.89408,-67.55921 -134.61832,-67.55921 z m 0.0117,52.49876 c 25.27988,0 45.77327,16.59762 45.77327,37.07182 v 16.70842 c 0,11.2464 -20.49339,20.3634 -45.77327,20.3634 l -0.75695,-0.003 c -24.93075,-0.17983 -45.01633,-9.22674 -45.01633,-20.36067 v -16.70842 l 0.006,-0.61305 c 0.40422,-20.19144 20.74006,-36.45877 45.76715,-36.45877 z"
     id="path1"
     style="stroke-width:0.521144" />
  <path
     d="m 630.14351,455.81339 225.1139,19.66787 c 1.22778,0.10727 2.45263,0.24733 3.6733,0.42005 38.84292,5.49603 65.99127,42.27679 60.63754,82.15213 l -20.19969,150.45031 c -1.88994,14.07659 -11.75573,25.20576 -24.48326,28.90622 l -0.15428,0.0432 1.5e-4,134.2269 c 0,39.37423 -30.44122,71.55117 -68.63617,72.84318 l -1.15978,0.0297 -314.87028,5.46548 c -0.40005,0.0104 -0.80015,0.0104 -1.20026,0.0104 -39.21013,-2e-5 -70.99622,-32.63097 -70.99622,-72.88329 V 558.41525 c 0,-31.90356 20.21242,-60.09905 49.88408,-69.58621 l 71.44724,-22.84439 c 29.38848,-9.39662 60.27366,-12.85086 90.94373,-10.17126 z m -58.78032,24.26854 -0.64575,0.12202 c -8.52081,1.60908 -16.95699,3.74395 -25.26205,6.39939 l -71.44723,22.8444 c -20.87982,6.67607 -35.10321,26.51711 -35.10321,48.96751 v 318.73036 c 0,28.32538 22.36773,51.28764 49.95973,51.28764 0.28155,0 0.5631,0 0.84462,-0.007 l 68.13484,-1.18103 c -20.52229,-12.47714 -34.43983,-35.27706 -34.86127,-61.55443 -0.01,-0.3999 -0.01,-0.79985 -0.01,-1.1998 V 706.86516 c 0,-3.07826 2.5032,-5.53351 5.49865,-5.39331 l 10.51969,0.49288 c -4.91458,-6.00832 -7.72918,-13.8551 -7.35089,-22.31036 0.0323,-0.72307 0.0883,-1.44482 0.16776,-2.16403 L 548.97141,522.132 c 1.89296,-17.13511 10.28402,-31.93278 22.39178,-42.05008 z M 533.4915,712.51567 v 151.97499 c 0,0.17035 5.2e-4,0.3407 0.002,0.51104 l 0.006,0.51101 c 0.54985,34.28385 28.06855,61.61883 61.46475,61.05437 l 69.28232,-1.17118 140.33282,-2.43546 c 27.25882,-0.47316 49.11511,-23.29297 49.11511,-51.28031 l -2.2e-4,-144.17796 z m 301.1364,51.64082 c 1.41509,14.08256 -7.27449,26.86087 -19.85035,28.2434 -12.59369,1.3845 -23.65898,-9.24945 -25.07554,-23.34669 -1.41508,-14.08256 7.2745,-26.86087 19.85036,-28.24341 12.59369,-1.38449 23.65897,9.24946 25.07553,23.3467 z m -23.95554,-12.61027 c -6.45761,0.70992 -11.35977,7.9187 -10.50762,16.399 0.85067,8.46562 7.05303,14.42621 13.49282,13.71825 6.45761,-0.70992 11.35976,-7.9187 10.50762,-16.399 -0.85067,-8.46563 -7.05303,-14.42621 -13.49282,-13.71825 z m -34.1135,11.59167 c 1.72154,-0.18569 3.26381,1.09598 3.44475,2.86269 0.18094,1.76671 -1.06796,3.34944 -2.7895,3.53513 -1.72154,0.18569 -3.26381,-1.09598 -3.44475,-2.86269 -0.18094,-1.76671 1.06796,-3.34945 2.7895,-3.53513 z m -217.1362,-239.7891 -17.16295,155.35833 c -0.053,0.47947 -0.0903,0.96063 -0.11184,1.44267 -0.53302,11.91392 8.44294,22.01565 20.04839,22.56285 l 302.15422,14.24661 c 6.87929,0.32435 12.89659,-4.59709 14.18669,-11.4632 l 20.19161,-150.39126 c 2.37346,-17.67787 -4.33082,-34.49143 -16.45158,-45.48043 l -0.54808,-0.48942 c -7.54262,-6.5321 -17.06319,-10.80945 -27.64541,-11.71941 L 614.65046,476.82672 c -27.63522,-2.37634 -52.10276,18.2343 -55.2278,46.52207 z m 54.87465,-42.09958 239.96778,20.64828 c 11.89555,1.02356 22.67358,6.83206 30.22787,15.99839 7.55537,9.16765 11.34576,21.03869 10.3472,33.24404 -0.0658,0.80472 -0.15251,1.60751 -0.25992,2.40751 l -18.02307,134.23378 c -0.011,0.082 -0.0229,0.16381 -0.0358,0.2455 l -1.89751,12.07358 c -0.54429,3.46323 -2.30862,6.55665 -4.91363,8.73354 -2.60501,2.17689 -5.91367,3.32273 -9.32749,3.16711 l -9.43498,-0.4301 -288.33938,-13.60551 c -4.38611,-0.20694 -8.44243,-2.19612 -11.34408,-5.4589 -2.90251,-3.26373 -4.46373,-7.59292 -4.26165,-12.09758 0.0168,-0.37375 0.0457,-0.74683 0.0867,-1.1186 l 17.21874,-155.96537 c 1.37544,-12.45857 7.40712,-23.64181 16.67594,-31.44204 9.26755,-7.79916 21.13573,-11.68145 33.3132,-10.63363 z m -26.64494,18.98419 -0.18774,0.15884 206.10221,17.53731 c 33.40153,2.84216 59.10042,31.50133 59.10042,65.90825 v 110.66967 c 0,2.22595 -0.43741,4.34702 -1.2288,6.27757 l 9.41091,0.42871 c 0.83346,0.038 1.61465,-0.24758 2.22071,-0.75403 0.60606,-0.50645 1.03697,-1.23378 1.16985,-2.07931 l 1.89751,-12.07358 18.02307,-134.23378 c 0.082,-0.61037 0.14808,-1.22286 0.19831,-1.83684 0.78323,-9.57342 -2.29161,-18.56601 -7.8958,-25.36612 -5.60506,-6.80115 -13.74015,-11.40917 -23.07647,-12.21252 L 613.41876,492.00929 c -9.67334,-0.83234 -18.79254,2.35523 -25.76639,8.22411 z m -12.89286,24.30747 -17.21875,155.96537 c -0.0147,0.13272 -0.025,0.26592 -0.031,0.39935 -0.0743,1.65579 0.51309,3.1856 1.52244,4.32058 1.01026,1.136 2.44319,1.8765 4.05908,1.95273 l 254.80137,12.02236 c 0.35838,-0.0623 0.72853,-0.0871 1.10629,-0.0706 l 17.66758,0.77088 c 0.0744,0.003 0.14886,0.005 0.22333,0.005 2.90454,0 5.25912,-2.41717 5.25912,-5.39891 V 583.8378 c 0,-28.78927 -21.503,-52.76921 -49.45103,-55.14734 l -213.5029,-18.16771 c -2.323,4.19592 -3.87376,8.92939 -4.43556,14.01812 z m 173.37911,75.82121 c 3.90007,38.1519 -19.64004,72.22501 -52.96739,75.82652 -33.32881,3.60167 -63.24676,-24.69676 -67.14695,-62.84988 -3.90007,-38.1519 19.64002,-72.22501 52.96738,-75.82653 33.32881,-3.60167 63.24676,24.69676 67.14696,62.84989 z m -66.04582,-52.1114 c -27.23262,2.94289 -46.93067,31.45482 -43.60772,63.96108 3.32282,32.50504 28.35385,56.18109 55.58501,53.23836 27.23262,-2.94289 46.93067,-31.45483 43.60772,-63.96109 -3.32282,-32.50504 -28.35384,-56.18108 -55.58501,-53.23835 z"
     id="path1-6"
     style="stroke-width:0.532856" />
</svg>
