<?xml version="1.0" encoding="UTF-8" standalone="no"?>
<!-- Created with Inkscape (http://www.inkscape.org/) -->

<svg
   width="100mm"
   height="100mm"
   viewBox="0 0 100 100"
   version="1.1"
   id="svg1"
   xml:space="preserve"
   inkscape:version="1.3.2 (091e20e, 2023-11-25, custom)"
   sodipodi:docname="icon.svg"
   xmlns:inkscape="http://www.inkscape.org/namespaces/inkscape"
   xmlns:sodipodi="http://sodipodi.sourceforge.net/DTD/sodipodi-0.dtd"
   xmlns="http://www.w3.org/2000/svg"
   xmlns:svg="http://www.w3.org/2000/svg"><sodipodi:namedview
     id="namedview1"
     pagecolor="#ffffff"
     bordercolor="#000000"
     borderopacity="0.25"
     inkscape:showpageshadow="2"
     inkscape:pageopacity="0.0"
     inkscape:pagecheckerboard="0"
     inkscape:deskcolor="#d1d1d1"
     inkscape:document-units="mm"
     inkscape:zoom="2.3849081"
     inkscape:cx="78.829033"
     inkscape:cy="136.48325"
     inkscape:window-width="3840"
     inkscape:window-height="2089"
     inkscape:window-x="-8"
     inkscape:window-y="-8"
     inkscape:window-maximized="1"
     inkscape:current-layer="layer1" /><defs
     id="defs1" /><g
     inkscape:label="Layer 1"
     inkscape:groupmode="layer"
     id="layer1"><path
       style="fill:#000000;fill-opacity:1;stroke:none;stroke-width:2.33838"
       d="M 89.778628,79.889303 H 75.673798 V 38.068655 c 0,-5.293764 1.312229,-12.204008 -3.099863,-16.055017 C 69.16418,19.037491 63.898879,19.967203 59.729183,19.967203 H 28.453218 V 6.8592438 h 34.95549 c 6.873329,0 13.874601,-0.5397708 19.615146,4.0755282 6.752526,5.428895 6.754774,14.176672 6.754774,22.140391 v 46.81414 M 26.613456,21.215565 v 41.820648 c 0,5.293764 -1.312229,12.204008 3.099891,16.055018 3.409732,2.976123 8.675056,2.046434 12.844728,2.046434 h 31.27596 V 94.245624 H 38.878551 c -6.873307,0 -13.874607,0.53977 -19.615151,-4.075528 -6.752503,-5.428895 -6.754775,-14.176673 -6.754775,-22.140391 v -46.81414 z"
       id="path1"
       sodipodi:nodetypes="ccsssccsssccsssccssscc" /></g></svg>
