<svg id="Layer_1" height="512" viewBox="0 0 64 64" width="512" xmlns="http://www.w3.org/2000/svg" data-name="Layer 1"><path d="m36 44h2v20h-2z"/><path d="m31 50h2v14h-2z"/><path d="m32 25a6.006 6.006 0 0 1 -6-6v-1a6 6 0 0 1 12 0v1a6.006 6.006 0 0 1 -6 6zm0-11a4 4 0 0 0 -4 4v1a4 4 0 0 0 8 0v-1a4 4 0 0 0 -4-4z"/><path d="m39.5 48a3.5 3.5 0 0 1 -3.5-3.5v-9.5h2v9.5a1.5 1.5 0 0 0 3 0v-13.5a3 3 0 0 0 -3-3h-12a3 3 0 0 0 -3 3v13.5a1.5 1.5 0 0 0 3 0v-9.5h2v9.5a3.5 3.5 0 0 1 -7 0v-13.5a5.006 5.006 0 0 1 5-5h12a5.006 5.006 0 0 1 5 5v13.5a3.5 3.5 0 0 1 -3.5 3.5z"/><path d="m26 44h2v20h-2z"/><path d="m55 41h2v20h-2z"/><path d="m50 47h2v14h-2z"/><path d="m51 22a6.006 6.006 0 0 1 -6-6v-1a6 6 0 0 1 12 0v1a6.006 6.006 0 0 1 -6 6zm0-11a4 4 0 0 0 -4 4v1a4 4 0 0 0 8 0v-1a4 4 0 0 0 -4-4z"/><path d="m58.5 45a3.5 3.5 0 0 1 -3.5-3.5v-9.5h2v9.5a1.5 1.5 0 0 0 3 0v-13.5a3 3 0 0 0 -3-3h-12a2.989 2.989 0 0 0 -1.983.75l-1.325-1.5a5 5 0 0 1 3.308-1.25h12a5.006 5.006 0 0 1 5 5v13.5a3.5 3.5 0 0 1 -3.5 3.5z"/><path d="m45 32h2v29h-2z"/><path d="m12 47h2v14h-2z"/><path d="m13 22a6.006 6.006 0 0 1 -6-6v-1a6 6 0 0 1 12 0v1a6.006 6.006 0 0 1 -6 6zm0-11a4 4 0 0 0 -4 4v1a4 4 0 0 0 8 0v-1a4 4 0 0 0 -4-4z"/><path d="m24 13a6.006 6.006 0 0 1 -6-6v-1a6 6 0 0 1 12 0v1a6.006 6.006 0 0 1 -6 6zm0-11a4 4 0 0 0 -4 4v1a4 4 0 0 0 8 0v-1a4 4 0 0 0 -4-4z"/><path d="m40 13a6.006 6.006 0 0 1 -6-6v-1a6 6 0 0 1 12 0v1a6.006 6.006 0 0 1 -6 6zm0-11a4 4 0 0 0 -4 4v1a4 4 0 0 0 8 0v-1a4 4 0 0 0 -4-4z"/><path d="m5.5 45a3.5 3.5 0 0 1 -3.5-3.5v-13.5a5.006 5.006 0 0 1 5-5h12a5 5 0 0 1 3.308 1.25l-1.325 1.5a2.989 2.989 0 0 0 -1.983-.75h-12a3 3 0 0 0 -3 3v13.5a1.5 1.5 0 0 0 3 0v-9.5h2v9.5a3.5 3.5 0 0 1 -3.5 3.5z"/><path d="m7 41h2v20h-2z"/><path d="m17 32h2v29h-2z"/></svg>